<svg xmlns="http://www.w3.org/2000/svg" xmlns:xlink="http://www.w3.org/1999/xlink" width="500" zoomAndPan="magnify" viewBox="0 0 375 374.999991" height="500" preserveAspectRatio="xMidYMid meet" version="1.0"><rect x="-37.5" width="450" fill="#ffffff" y="-37.499999" height="449.999989" fill-opacity="1"/><rect x="-37.5" width="450" fill="#ffffff" y="-37.499999" height="449.999989" fill-opacity="1"/><path fill="#737373" d="M 253.527344 207.035156 C 252.425781 200.300781 246 195.746094 240.058594 193.46875 C 235.648438 191.878906 231.117188 190.828125 226.457031 190.3125 C 221.800781 189.792969 217.148438 189.828125 212.5 190.414062 C 203.726562 191.535156 195.8125 195.273438 187.785156 198.738281 C 179.757812 195.273438 171.839844 191.523438 163.070312 190.414062 C 158.417969 189.832031 153.765625 189.796875 149.109375 190.3125 C 144.453125 190.828125 139.917969 191.882812 135.511719 193.46875 L 135.507812 193.46875 L 135.507812 193.472656 C 135.269531 193.542969 135.039062 193.640625 134.820312 193.761719 C 129.519531 195.933594 124.527344 199.617188 122.515625 205.171875 C 120.398438 211.027344 123.453125 217.167969 128.65625 220.148438 C 134.710938 223.621094 141.949219 222.4375 148.410156 220.96875 C 155.066406 219.382812 161.566406 217.304688 167.910156 214.738281 C 174.597656 212.113281 181.171875 209.195312 187.785156 206.378906 C 199.863281 211.53125 211.867188 217.109375 224.632812 220.359375 C 231.007812 221.984375 238.367188 223.730469 244.722656 221.171875 C 250.503906 218.847656 254.578125 213.441406 253.527344 207.035156 Z M 154.363281 212.042969 C 149.042969 213.675781 143.230469 215.484375 137.613281 215.363281 C 134.171875 215.289062 129.382812 213.707031 128.917969 209.671875 C 128.40625 205.195312 133.8125 201.664062 137.390625 200.292969 C 141.390625 198.832031 145.503906 197.855469 149.730469 197.371094 C 153.960938 196.882812 158.1875 196.894531 162.414062 197.410156 C 168.160156 198.332031 173.660156 200.039062 178.917969 202.539062 C 170.90625 206.148438 162.71875 209.316406 154.363281 212.042969 Z M 239.984375 215.195312 C 234.585938 216.117188 228.527344 214.164062 223.382812 212.691406 C 217.960938 211.09375 212.640625 209.21875 207.414062 207.070312 C 203.804688 205.613281 200.226562 204.078125 196.648438 202.539062 C 201.90625 200.042969 207.40625 198.332031 213.152344 197.410156 C 217.378906 196.894531 221.605469 196.882812 225.835938 197.367188 C 230.066406 197.855469 234.179688 198.832031 238.175781 200.292969 C 241.585938 201.597656 246.039062 204.5 246.625 208.441406 C 247.191406 212.257812 243.242188 214.640625 239.984375 215.195312 Z M 239.984375 215.195312 " fill-opacity="1" fill-rule="nonzero"/><path fill="#737373" d="M 190.671875 111.273438 C 198.199219 109.21875 201.5 100.636719 201.578125 93.554688 C 201.507812 87.1875 198.933594 79.570312 192.75 76.648438 C 186.636719 73.753906 180.292969 76.761719 176.953125 82.273438 C 176.070312 83.832031 175.378906 85.472656 174.878906 87.191406 C 174.382812 88.914062 174.089844 90.667969 174.003906 92.457031 C 173.914062 94.25 174.039062 96.023438 174.367188 97.785156 C 174.695312 99.546875 175.226562 101.246094 175.953125 102.882812 C 178.433594 108.546875 184.261719 113.019531 190.671875 111.273438 Z M 187.273438 82.527344 C 187.527344 82.453125 187.414062 82.496094 187.273438 82.527344 Z M 182.1875 87.527344 C 182.585938 86.617188 183.078125 85.757812 183.65625 84.949219 C 183.691406 84.929688 184.261719 84.265625 184.328125 84.195312 C 184.496094 84.027344 184.667969 83.867188 184.84375 83.707031 C 184.929688 83.628906 184.984375 83.574219 185.027344 83.535156 C 185.074219 83.507812 185.128906 83.472656 185.21875 83.414062 C 185.546875 83.199219 185.882812 83.007812 186.238281 82.839844 C 186.308594 82.84375 186.929688 82.632812 187.09375 82.582031 L 187.191406 82.554688 C 187.445312 82.535156 187.695312 82.53125 187.949219 82.53125 C 187.992188 82.527344 188.144531 82.542969 188.269531 82.550781 C 188.433594 82.585938 188.742188 82.648438 188.792969 82.660156 C 188.765625 82.65625 189.144531 82.785156 189.324219 82.839844 C 189.480469 82.917969 189.734375 83.039062 189.773438 83.0625 C 189.96875 83.171875 190.160156 83.292969 190.347656 83.414062 C 190.453125 83.484375 190.511719 83.515625 190.550781 83.539062 C 190.605469 83.597656 190.664062 83.65625 190.722656 83.707031 C 191.554688 84.394531 192.214844 85.21875 192.703125 86.179688 C 193.9375 88.484375 194.539062 90.941406 194.503906 93.554688 C 194.519531 95.886719 194.042969 98.109375 193.078125 100.230469 C 192.390625 101.859375 191.289062 103.132812 189.773438 104.050781 C 189.640625 104.125 189.503906 104.191406 189.367188 104.257812 C 189.269531 104.292969 189.035156 104.382812 188.949219 104.402344 C 188.738281 104.453125 188.527344 104.507812 188.316406 104.5625 L 188.292969 104.566406 C 188.289062 104.566406 188.289062 104.566406 188.28125 104.566406 C 187.9375 104.535156 187.59375 104.53125 187.246094 104.554688 C 187.089844 104.523438 186.929688 104.492188 186.773438 104.449219 C 186.6875 104.425781 186.332031 104.292969 186.207031 104.253906 C 184.699219 103.542969 183.585938 102.433594 182.863281 100.929688 C 182.324219 99.902344 181.902344 98.832031 181.597656 97.714844 C 181.292969 96.597656 181.109375 95.460938 181.050781 94.304688 C 180.992188 93.144531 181.058594 91.996094 181.25 90.855469 C 181.441406 89.710938 181.753906 88.601562 182.1875 87.527344 Z M 182.1875 87.527344 " fill-opacity="1" fill-rule="nonzero"/><path fill="#737373" d="M 181.53125 183.171875 L 185.28125 186.921875 C 185.925781 187.601562 186.710938 187.941406 187.648438 187.945312 C 187.695312 187.949219 187.742188 187.949219 187.789062 187.949219 C 187.832031 187.949219 187.871094 187.949219 187.914062 187.945312 C 188.851562 187.945312 189.640625 187.601562 190.285156 186.921875 L 220.613281 156.59375 C 220.9375 156.257812 221.1875 155.875 221.363281 155.441406 C 221.539062 155.007812 221.625 154.558594 221.625 154.09375 C 221.625 153.625 221.539062 153.175781 221.363281 152.742188 C 221.1875 152.308594 220.9375 151.925781 220.613281 151.589844 L 194.035156 125.015625 L 190.285156 121.261719 C 189.949219 120.9375 189.566406 120.6875 189.132812 120.511719 C 188.699219 120.335938 188.25 120.25 187.785156 120.25 C 187.316406 120.25 186.867188 120.335938 186.433594 120.511719 C 186 120.6875 185.617188 120.9375 185.28125 121.261719 L 158.707031 147.839844 L 154.953125 151.589844 C 154.628906 151.925781 154.378906 152.308594 154.203125 152.742188 C 154.027344 153.175781 153.941406 153.625 153.941406 154.09375 C 153.941406 154.558594 154.027344 155.007812 154.203125 155.441406 C 154.378906 155.875 154.628906 156.257812 154.953125 156.59375 Z M 211.859375 152.84375 L 213.109375 154.09375 L 189.03125 178.167969 L 187.785156 179.417969 L 162.460938 154.09375 L 186.535156 130.015625 L 187.785156 128.769531 Z M 211.859375 152.84375 " fill-opacity="1" fill-rule="nonzero"/></svg>